<svg enable-background="new 0 0 100 100" height="512" viewBox="0 0 100 100" width="512" xmlns="http://www.w3.org/2000/svg"><path d="m42.032372 52.06704h15.928139v37.932961h-15.928139z" fill="#d5d6db"/><path d="m50.230545 10c-.6702881 0-1.2136955.5434065-1.2136955 1.2136955v13.9768276h2.4273911v-13.9768276c0-.670289-.5434075-1.2136955-1.2136956-1.2136955z" fill="#4d5c7d"/><path d="m59.416069 18.9845161h-9.416069-9.416069l-3.138691 3.2751713 2.3881073 5.9362393h10.1666527 10.1666527l2.3881073-5.9362393z" fill="#d5d6db"/><path d="m62.4894218 22.1915379-3.0733528-3.2070218h-18.832138l-3.0733528 3.2070218z" fill="#e6e9ef"/><path d="m69.3875504 30.7309608-1.6261139-2.9812374c-.1433868-.2628555-.4188995-.426405-.7182846-.426405h-17.0431519-17.0431557c-.2993774 0-.574894.1635494-.7182808.426405l-1.6261101 2.9812374c-.2176838.3989983-.2247162.8796406-.0188618 1.284893l11.4387798 22.5200882h7.9676286 7.9676781l11.4387321-22.5200882c.2058563-.4052524.198822-.8858947-.0188598-1.284893z" fill="#e1e6e9"/><g fill="#00abee"><path d="m42.7020416 45.9256592h-3.6087532l-.6061058-1.1908226-.3158455-.623169-.2624893-.5164604-.2070007-.4075966-2.5182572-4.9596634h5.520958l.4182777 1.6155091.128067.486557.1600571.6146469v.0021362l.1920471.7426644.7128105 2.744461.16428.6338234.2070541.8002892.0128174.0512161z"/><path d="m49.0168839 38.2279472v7.697712h-4.2831688l-.1301499-.5036469-.2518616-.9667549-.2070045-.8002891-.1642761-.6338234-1.2463379-4.7931977z"/><path d="m57.2652359 38.2279472-.1515656.5868798-.232582.892044-.2945328 1.1332207-.3542443 1.3636704-.9667587 3.7218971h-4.283165v-7.697712z"/><path d="m64.8156815 38.2279472-.2347718.460949-.5505676 1.0841446-.6957169 1.370079-.8387413 1.6517944-1.5899009 3.130745h-3.608757l.014904-.0576248.2049179-.791771.2837982-1.0904999.2240944-.8621864.7064018-2.7252579.0917511-.3521347.4716301-1.8182373z"/><path d="m39.3216515 32.9054718.7021293 2.701786h-6.1697349l-1.3722191-2.701786z"/><path d="m49.0168839 32.9054718v2.701786h-6.9636193l-.6999397-2.701786z"/><path d="m58.6459465 32.9054718-.6999435 2.701786h-6.9636155v-2.701786z"/><path d="m67.5174408 32.9054718-1.3722153 2.701786h-6.1696815l.7020759-2.701786z"/></g><g fill="#e6e9ef"><g opacity=".5"><path d="m41.2508926 40.3300133-3.3420448 3.2651939-.2070007-.4075966 3.4209785-3.3441543z"/><path d="m41.6029968 41.6894608-3.1158142 3.0453758-.3158455-.623169 3.2396126-3.1648712z"/></g><g opacity=".5"><path d="m49.0168839 38.7486572v.7725449l-4.8721848 4.1337662-.1642761-.6338234z"/><path d="m42.6871414 45.8680344.0128174.0512161-.0299072-.0362892z"/><path d="m49.0168839 40.4986153v1.1780319l-4.4133187 3.7453651-.2518616-.9667549z"/></g><g opacity=".5"><path d="m57.1136703 38.814827-.232582.892044-5.8987008 4.2618027v-.7277107z"/><path d="m56.5865555 40.8400917-.3542443 1.3636704-5.1496276 3.7218971h-.1002961v-1.0371742z"/></g><g opacity=".5"><path d="m64.5809097 38.6888962-.5505676 1.0841446-6.229496 4.2127227.2240944-.8621864z"/><path d="m63.3346252 41.1431198-.8387413 1.6517944-4.6288681 3.130745h-.5164337l-.0384521-.0576248.2049179-.791771z"/></g></g></svg>
