<?xml version="1.0" standalone="no"?>
<!DOCTYPE svg PUBLIC "-//W3C//DTD SVG 20010904//EN"
 "http://www.w3.org/TR/2001/REC-SVG-20010904/DTD/svg10.dtd">
<svg version="1.0" xmlns="http://www.w3.org/2000/svg"
 width="835.000000pt" height="803.000000pt" viewBox="0 0 835.000000 803.000000"
 preserveAspectRatio="xMidYMid meet">

<g transform="translate(0.000000,803.000000) scale(0.100000,-0.100000)"
fill="#000000" stroke="none">
<path d="M1422 8010 c-83 -38 -197 -184 -217 -278 -15 -71 2 -110 79 -186 68
-67 113 -103 439 -345 250 -186 563 -459 1032 -901 641 -604 1044 -1027 1145
-1203 57 -99 31 -162 -104 -251 -104 -69 -135 -84 -411 -201 -759 -321 -1319
-592 -1643 -796 -52 -32 -97 -59 -101 -59 -14 0 -249 139 -472 278 -240 149
-414 249 -519 297 -124 57 -293 37 -503 -59 -40 -18 -89 -48 -110 -65 l-37
-33 19 -37 c53 -103 420 -528 794 -918 l97 -102 0 -348 c0 -494 24 -847 68
-989 l18 -59 65 1 c73 1 193 46 312 115 188 111 202 143 386 869 44 173 91
346 104 385 l24 69 124 28 c380 85 793 219 1429 463 687 264 817 301 900 258
19 -10 42 -32 52 -48 81 -142 86 -995 12 -2240 -24 -419 -56 -710 -113 -1040
-72 -418 -64 -507 51 -566 45 -23 155 -49 210 -49 141 0 205 51 297 242 116
239 233 589 381 1140 l43 156 241 98 c132 53 267 111 300 127 75 40 139 104
162 162 30 79 3 190 -65 267 -68 78 -154 77 -353 -4 -76 -31 -138 -53 -138
-50 0 4 12 50 26 102 14 52 63 239 110 414 46 176 86 321 87 323 2 1 86 37
188 78 287 118 379 170 454 258 42 49 68 126 59 177 -9 46 -46 120 -76 147
-31 29 -90 53 -130 53 -47 0 -119 -21 -232 -69 -54 -23 -101 -40 -102 -38 -2
2 46 156 107 343 61 186 149 458 196 604 48 146 91 270 97 277 6 6 76 38 156
71 80 32 269 110 420 172 568 232 670 276 875 380 455 229 671 424 692 624 7
72 -18 148 -60 180 -57 42 -102 51 -257 50 -157 0 -305 -22 -613 -89 -359 -77
-400 -92 -1366 -484 -96 -39 -180 -71 -186 -71 -6 0 -148 72 -316 161 -167 88
-415 219 -550 290 -135 71 -253 135 -263 142 -15 11 -3 19 103 61 187 74 242
124 249 227 7 101 -43 195 -125 231 -110 49 -267 19 -582 -110 -173 -71 -197
-79 -215 -67 -12 8 -176 106 -366 220 -190 113 -348 210 -353 214 -4 4 51 31
123 60 150 62 197 89 230 138 50 73 34 200 -36 282 -52 60 -99 81 -182 81 -89
0 -123 -11 -413 -130 -133 -55 -246 -100 -250 -100 -5 0 -71 38 -149 85 -356
216 -802 452 -998 529 -97 38 -239 76 -282 76 -14 0 -44 -9 -68 -20z"/>
</g>
</svg>
